<svg id="visual" viewBox="0 0 900 600" width="900" height="600" xmlns="http://www.w3.org/2000/svg" xmlns:xlink="http://www.w3.org/1999/xlink" version="1.1"><rect x="0" y="0" width="900" height="600" fill="#e0bc5d"></rect><path d="M0 379L21.5 398.2C43 417.3 86 455.7 128.8 460.3C171.7 465 214.3 436 257.2 417.3C300 398.7 343 390.3 385.8 409C428.7 427.7 471.3 473.3 514.2 486.2C557 499 600 479 642.8 465.2C685.7 451.3 728.3 443.7 771.2 452.2C814 460.7 857 485.3 878.5 497.7L900 510L900 601L878.5 601C857 601 814 601 771.2 601C728.3 601 685.7 601 642.8 601C600 601 557 601 514.2 601C471.3 601 428.7 601 385.8 601C343 601 300 601 257.2 601C214.3 601 171.7 601 128.8 601C86 601 43 601 21.5 601L0 601Z" fill="#F7770F" stroke-linecap="round" stroke-linejoin="miter"></path></svg>